<svg width="500" height="500" viewBox="0 0 500 500" fill="none" xmlns="http://www.w3.org/2000/svg">
<g clip-path="url(#clip0_3692_195)">
<path d="M0 0H500V500H0V0Z" fill="#C7C0C0"/>
<path d="M151.382 162.712C147.007 161.142 141.637 158.803 137.269 156.993C129.695 153.837 122.094 150.745 114.468 147.719L91.1927 138.354C86.5702 136.519 80.9789 134.605 76.6489 132.323C67.9604 127.744 81.4249 122.82 84.8212 121.044C91.0487 117.786 97.5927 115.217 103.905 112.196L175.765 78.1608L239.128 48.5615C244.738 45.9905 250.34 43.2315 256.043 40.8908C259.83 39.56 263.82 36.3525 267.948 38.113C279.37 42.984 290.835 47.7453 302.305 52.4825L404.76 95.0775L432.355 106.075C436.413 107.649 442.013 109.183 445.605 111.406C452.735 115.815 441.003 119.717 438.225 122.605C437.695 137.468 438.525 152.604 438.18 167.499C438.13 169.61 438.44 175.913 436.9 177.335C435.473 177.6 434.028 177.144 432.575 176.83C432.445 175.281 432.393 173.558 432.428 172.003C432.723 158.338 432.308 144.691 432.46 131.026C432.485 128.941 432.218 126.59 432.008 124.501C417.285 131.152 403.138 138.894 388.62 145.953C383.135 148.621 377.613 151.16 372.773 154.923C372.435 161.45 372.688 169.638 372.663 176.346L372.7 225.276L372.688 239.992C372.673 247.982 372.903 256.588 368.14 263.411C360.275 274.676 343.19 285.631 329.705 288.433C322.828 290.026 316.438 292.576 309.565 294.123C306.635 294.783 303.353 295.016 300.505 295.711C288.573 298.618 277.253 298.721 265.058 298.773C247.075 298.851 229.15 297.623 211.659 293.071C209.144 292.428 205.555 291.673 203.165 290.916C188.073 286.946 176.221 282.343 164.084 272.143C148.892 259.378 151.771 243.867 151.751 226.141L151.526 185.843C151.498 178.765 151.785 169.555 151.382 162.712Z" fill="black"/>
<path d="M158.224 166.123C170.783 171.437 183.555 176.211 196.14 181.377L236.968 198.032C239.704 199.159 263.663 209.479 264.68 209.019C288.56 197.973 311.54 185.013 335.363 173.68C345.873 168.68 355.618 163.084 366.463 158.27C366.575 177.944 366.588 197.618 366.503 217.292C366.535 222.16 366.623 227.027 366.763 231.893C366.81 233.916 367.015 237.937 366.778 239.698C366.638 259.309 357.49 269.131 340.77 278.321C338.805 279.399 336.585 280.029 334.51 280.861C331.588 282.011 326.215 283.041 329.345 288.164C329.465 288.254 329.585 288.344 329.705 288.434C322.828 290.026 316.438 292.576 309.565 294.124C306.635 294.784 303.353 295.016 300.505 295.711C288.573 298.619 277.253 298.721 265.058 298.774C247.075 298.851 229.15 297.624 211.659 293.071C209.144 292.429 205.555 291.674 203.165 290.916C203.773 288.104 201.478 286.046 199.316 284.594C196.032 282.391 191.978 281.319 188.405 279.679C181.561 276.534 174.001 272.419 168.45 267.309C166.12 265.181 164.11 262.726 162.483 260.024C158.057 252.736 158.559 248.65 158.254 240.39C157.711 238.141 157.895 230.438 157.9 227.716L157.922 207.916L157.963 182.296C157.97 177.265 157.848 171.066 158.224 166.123Z" fill="#FEFEFE"/>
<path d="M158.254 240.388C159.778 240.916 161.239 241.898 162.662 242.685C177.481 250.871 192.536 257.669 208.856 262.379C244.566 272.606 282.405 272.799 318.215 262.934C324.205 261.256 332.003 258.851 337.74 256.319C345.08 252.944 352.125 248.853 359.123 244.828C361.733 243.326 364.153 241.083 366.778 239.695C366.638 259.306 357.49 269.129 340.77 278.319C338.805 279.396 336.585 280.026 334.51 280.859C331.588 282.009 326.215 283.039 329.345 288.161C329.465 288.251 329.585 288.341 329.705 288.431C322.828 290.024 316.438 292.574 309.565 294.121C306.635 294.781 303.353 295.014 300.505 295.709C288.573 298.616 277.253 298.719 265.058 298.771C247.075 298.849 229.15 297.621 211.659 293.069C209.144 292.426 205.555 291.671 203.165 290.914C203.773 288.101 201.478 286.044 199.316 284.591C196.032 282.389 191.978 281.316 188.405 279.676C181.561 276.531 174.001 272.416 168.45 267.306C166.12 265.179 164.11 262.724 162.483 260.021C158.057 252.734 158.559 248.648 158.254 240.388Z" fill="#7E044E"/>
<path d="M264.6 44.9766C266.418 45.0143 281.703 51.8361 284.748 53.1188L331.133 72.7236L395.193 98.9101L418.15 108.154C423.773 110.432 429.413 112.851 435.133 114.848C423.385 120.01 412.08 126.808 400.39 132.135C397.755 133.337 388.778 138.368 386.268 137.862C381.463 136.893 375.808 135.19 371.03 133.841C361.933 131.272 352.855 128.639 343.795 125.939L270.578 104.663C269.2 104.269 266 103.225 264.953 104.104C261.705 106.823 263.203 110.482 267.095 111.541C272.175 112.924 277.268 114.077 282.343 115.498L318.673 125.886C338.025 131.306 359.35 138.36 378.678 142.709C371.918 146.507 365.823 149.575 358.92 153.103C348.588 158.716 338.318 163.592 327.91 168.901L264.32 201.04C251.493 195.446 237.723 190.199 224.726 184.888L199.464 174.622C190.871 171.036 182.396 167.167 173.658 163.925C168.315 161.943 163.001 159.949 157.727 157.79L114.812 140.085C106.457 136.617 94.3557 131.301 85.9204 128.801C90.0517 126.367 94.2932 124.889 98.3564 122.682C107.205 117.526 116.583 113.993 125.777 109.707C137.741 104.129 149.434 97.9521 161.65 92.8336C167.717 90.2916 173.718 86.7288 179.752 84.0568C208.167 71.4736 235.989 57.1176 264.6 44.9766Z" fill="#FEFEFE"/>
<path d="M112.086 305.811C113.287 305.706 114.899 305.696 116.121 305.726C127.751 306.008 139.369 305.803 151.002 305.791L243.26 305.898L360.348 305.918L398.565 305.936C406.438 305.903 414.688 305.726 422.543 306.083C427.015 306.286 432.268 308.633 435.873 311.251C443.008 316.428 447.745 324.271 449.008 332.996C451.158 347.136 447.72 361.481 435.74 370.131C432.215 372.676 429.645 374.548 425.283 375.166L426.023 375.518C427.893 376.393 429.2 377.151 429.375 379.378C429.738 383.981 429.648 388.856 429.655 393.466L429.5 422.441C429.505 428.466 429.398 435.333 430.173 441.288C431.195 441.538 432.383 441.941 433.403 442.258C434.018 443.116 434.703 444.233 435.293 445.136C434.36 446.288 433.645 447.051 433.018 448.406C428.868 448.551 424.153 448.421 419.95 448.431C413.653 448.448 407.163 448.526 400.895 448.273C400.348 448.761 400.58 448.653 399.928 448.888C398.68 447.253 397.89 446.506 396.388 445.063C397.063 444.223 398.61 442.498 399.645 442.348C406.775 441.306 415.315 441.726 422.523 441.748C422.678 436.933 422.58 431.896 422.628 427.053L422.75 383.228C413.058 382.763 401.753 383.016 391.978 383.021L334.715 383.173L175.375 383.011L129.911 382.998C121.706 382.986 112.28 382.578 104.234 383.611C100.913 384.098 98.1714 386.001 95.5267 387.781C81.8137 397.003 78.5079 418.673 88.9857 431.978C92.6972 436.731 97.9929 439.991 103.907 441.166C108.393 442.043 116.548 441.843 121.349 441.881C132.989 441.941 144.63 441.911 156.271 441.798L292.16 441.843L326.345 441.736C331.525 441.713 336.793 441.538 341.955 441.803C344.025 441.908 347.233 442.938 346.8 445.561C345.923 447.138 344.89 446.011 343.91 448.468C343.425 448.543 343.568 448.553 343.18 448.526C337.188 448.108 331.028 448.273 324.985 448.191C309.193 448.083 293.398 448.088 277.605 448.201L159.443 448.246L124.749 448.216C119.081 448.238 109.48 448.638 104.084 448.121C101.227 447.841 98.4349 447.096 95.8192 445.913C88.0089 442.391 81.2292 433.958 78.3557 426.103C74.8834 416.611 75.5602 405.316 79.9044 396.233C86.4059 382.641 94.5422 380.583 107.108 375.918C91.4074 366.941 95.9452 354.343 95.1892 338.966C94.9589 334.286 94.6979 326.421 95.5377 321.961C96.1274 318.913 97.3769 316.033 99.1987 313.523C102.316 309.226 106.891 306.666 112.086 305.811Z" fill="black"/>
<path d="M116.104 312.866C122.007 312.659 128.605 312.771 134.545 312.774L165.309 312.804L258.12 312.911L360.35 312.781L396.35 312.794C403.67 312.796 420.125 311.971 426.445 314.079C432.34 316.044 436.957 320.709 439.672 326.229C443.547 334.114 443.587 344.419 440.725 352.629C438.325 359.519 433.36 364.171 426.89 367.264C424.385 368.311 422.312 369.071 419.552 369.194C413.877 369.444 408.132 369.394 402.445 369.434L363.845 369.326L279.38 369.469L165.647 369.509L132.611 369.451C126.169 369.444 119.621 369.489 113.197 369.341C110.69 369.076 108.718 369.466 106.783 367.551C103.449 364.249 101.765 361.206 101.827 356.299C101.97 345.056 101.411 333.331 102.524 322.149C102.726 320.124 103.851 318.584 105.173 317.151C108.531 313.511 111.296 313.044 116.104 312.866Z" fill="#FEFEFE"/>
<path d="M115.936 337.319C124.573 337.079 133.632 337.452 142.328 337.387C180.135 337.212 217.943 337.229 255.75 337.439C290.125 337.239 324.5 337.232 358.875 337.419C371.825 337.312 384.775 337.269 397.725 337.292C402.572 337.287 407.465 337.307 412.317 337.182C415.602 337.097 419.94 339.557 417.74 343.217C417.15 344.197 415.822 344.419 414.812 344.522C407.405 345.042 395.722 344.724 388.035 344.717L342.357 344.637L229.031 344.529C201.106 344.727 173.18 344.767 145.254 344.654L126.206 344.732C122.523 344.749 117.234 344.954 113.721 344.304C110.74 341.154 111.771 338.332 115.936 337.319Z" fill="black"/>
<path d="M355.723 403.214C366.12 403.169 377.308 403.249 387.678 402.941C388.98 404.461 389.935 407.691 390.438 408.184C388.123 408.916 388.545 413.001 389.17 414.779C388.2 424.876 390.523 455.874 388.063 463.049C382.32 458.469 377.208 453.929 371.73 449.031C366.46 453.074 361.19 457.681 355.825 461.541L354.003 460.184C353.965 458.114 353.975 455.939 354.03 453.874C354.375 440.756 353.788 427.624 353.738 414.529C354.315 413.369 354.418 410.506 353.823 409.314C353.463 408.599 352.995 408.576 352.33 408.346C353.46 407.819 354.043 405.144 355.723 403.214Z" fill="#7E044E"/>
<path d="M353.738 414.528C336.463 414.206 320.01 414.516 302.825 414.456L174.465 414.303L137.247 414.393C128.753 414.461 120.255 414.491 111.761 414.486C110.159 414.483 105.561 414.241 105.634 411.891C105.796 408.448 108.97 408.261 111.706 408.221C126.715 408.008 141.739 408.161 156.744 408.151L254.328 408.196L321.19 408.068C330.583 408.098 343.33 407.716 352.33 408.346C352.995 408.576 353.463 408.598 353.823 409.313C354.418 410.506 354.315 413.368 353.738 414.528Z" fill="black"/>
<path d="M435.635 189.601C444.607 189.054 452.34 195.852 452.945 204.821C453.55 213.789 446.802 221.564 437.837 222.227C428.79 222.896 420.927 216.073 420.317 207.022C419.707 197.971 426.582 190.153 435.635 189.601Z" fill="#7E044E"/>
<path d="M48.2721 259.964C52.4209 259.976 69.9044 259.506 72.4374 260.749C72.9606 261.976 73.0531 263.819 73.0359 265.166C72.9466 272.044 73.2866 279.001 72.8866 285.856C72.7399 286.016 72.5931 286.174 72.4464 286.334C70.1049 286.654 65.5291 286.556 63.0414 286.546L48.0399 286.479C47.6924 281.179 47.6501 275.741 47.5234 270.424C47.4536 267.491 47.0701 262.536 48.2721 259.964Z" fill="#7E044E"/>
<path d="M104.13 221.375C104.449 221.379 105.881 221.447 105.892 221.802C106.054 227.076 107.173 239.951 105.678 244.583C104.839 245.241 88.1493 245.058 85.363 245.236C84.7195 245.162 83.1973 245.091 83.2045 244.217C83.2405 239.925 81.9698 225.178 83.7443 221.943C85.6855 221.192 100.632 221.496 104.13 221.375Z" fill="#7E044E"/>
<path d="M390.437 408.185C394.232 408.178 407.137 407.303 409.64 409.75C410.045 410.145 410.31 410.665 410.342 411.235C410.375 411.833 410.16 412.62 409.725 413.05C407.43 415.32 393.047 414.415 389.17 414.78C388.545 413.003 388.122 408.918 390.437 408.185Z" fill="black"/>
<path d="M113.82 261.062C117.924 262.192 117.549 268.675 116.301 271.818C113.322 272.79 111.081 272.945 108.091 271.763C106.966 269.175 106.064 267.213 107.122 264.355C107.808 262.5 109.87 261.27 111.783 261.272C112.437 261.245 113.163 261.14 113.82 261.062Z" fill="#7E044E"/>
<path d="M298.97 300.472C301.735 300.69 314.548 299.49 315.14 301.915C314.66 303.09 314.963 302.84 314.045 303.387C311.01 303.307 298.883 304.485 297.68 301.842C298.003 300.927 298 301.162 298.97 300.472Z" fill="#FEFEFE"/>
<path d="M215.673 300.372C217.493 300.107 228.797 300.357 229.902 301.374C230.101 303.079 229.483 303.342 228.063 303.469C224.762 303.419 214.749 303.799 212.638 302.117C212.385 301.307 212.385 301.717 212.772 300.849C213.594 300.302 214.649 300.404 215.673 300.372Z" fill="#FEFEFE"/>
</g>
<defs>
<clipPath id="clip0_3692_195">
<rect width="500" height="500" fill="white"/>
</clipPath>
</defs>
</svg>
